<?xml version="1.0" standalone="no"?><svg xmlns="http://www.w3.org/2000/svg" viewBox="0 0 1440 320"><path fill="#F2A32D" fill-opacity="1" d="M0,192L30,208C60,224,120,256,180,224C240,192,300,96,360,74.7C420,53,480,107,540,144C600,181,660,203,720,202.7C780,203,840,181,900,149.3C960,117,1020,75,1080,80C1140,85,1200,139,1260,165.3C1320,192,1380,192,1410,192L1440,192L1440,320L1410,320C1380,320,1320,320,1260,320C1200,320,1140,320,1080,320C1020,320,960,320,900,320C840,320,780,320,720,320C660,320,600,320,540,320C480,320,420,320,360,320C300,320,240,320,180,320C120,320,60,320,30,320L0,320Z"></path></svg>